<svg width="24" height="24" viewBox="0 0 24 24" fill="none" xmlns="http://www.w3.org/2000/svg">
    <path d="M21.7312 2.26912C20.706 1.24399 19.044 1.24399 18.0188 2.26912L16.8617 3.42627L20.574 7.13858L21.7312 5.98143C22.7563 4.9563 22.7563 3.29425 21.7312 2.26912Z" fill="#4C6EF6"/>
    <path d="M19.5133 8.19924L15.801 4.48693L7.40019 12.8878C6.78341 13.5046 6.33002 14.2653 6.081 15.1013L5.28122 17.7861C5.2026 18.0501 5.27494 18.3359 5.46967 18.5306C5.6644 18.7253 5.95019 18.7977 6.21412 18.7191L8.89901 17.9193C9.73498 17.6702 10.4957 17.2169 11.1125 16.6001L19.5133 8.19924Z" fill="#4C6EF6"/>
    <path d="M5.25 5.25027C3.59315 5.25027 2.25 6.59341 2.25 8.25027V18.7503C2.25 20.4071 3.59315 21.7503 5.25 21.7503H15.75C17.4069 21.7503 18.75 20.4071 18.75 18.7503V13.5003C18.75 13.0861 18.4142 12.7503 18 12.7503C17.5858 12.7503 17.25 13.0861 17.25 13.5003V18.7503C17.25 19.5787 16.5784 20.2503 15.75 20.2503H5.25C4.42157 20.2503 3.75 19.5787 3.75 18.7503V8.25027C3.75 7.42184 4.42157 6.75027 5.25 6.75027H10.5C10.9142 6.75027 11.25 6.41448 11.25 6.00027C11.25 5.58605 10.9142 5.25027 10.5 5.25027H5.25Z" fill="#4C6EF6"/>
</svg>
