<svg width="14" height="14" viewBox="0 0 14 14" fill="none" xmlns="http://www.w3.org/2000/svg">
    <path fill-rule="evenodd" clip-rule="evenodd" d="M0.000488281 1.99999C0.000488281 0.895423 0.895919 -7.62939e-06 2.00049 -7.62939e-06H2.91491C3.48849 -7.62939e-06 3.98847 0.390364 4.12758 0.946823L4.86478 3.89561C4.98676 4.38353 4.80445 4.89702 4.4021 5.19878L3.53969 5.84559C3.45014 5.91276 3.43067 6.01111 3.45582 6.07978C4.21283 8.14632 5.85416 9.78765 7.9207 10.5447C7.98937 10.5698 8.08772 10.5503 8.15489 10.4608L8.8017 9.59838C9.10346 9.19604 9.61695 9.01372 10.1049 9.1357L13.0537 9.8729C13.6101 10.012 14.0005 10.512 14.0005 11.0856V12C14.0005 13.1046 13.1051 14 12.0005 14H10.5005C4.7015 14 0.000488281 9.29898 0.000488281 3.49999V1.99999Z" fill="white"/>
</svg>
