<svg width="16" height="16" viewBox="0 0 16 16" fill="none" xmlns="http://www.w3.org/2000/svg">
    <path fill-rule="evenodd" clip-rule="evenodd" d="M6.21049 5.05576C8.13089 2.58863 11.1302 1.00014 14.5005 0.999992C14.6331 0.999987 14.7603 1.05266 14.854 1.14643C14.9478 1.2402 15.0005 1.36738 15.0005 1.49999C15.0005 4.87042 13.412 7.87 10.9448 9.79056C10.9815 10.0219 11.0005 10.2589 11.0005 10.5C11.0005 12.9853 8.98577 15 6.50049 15C6.22435 15 6.00049 14.7761 6.00049 14.5V11.7456C5.99432 11.7412 5.98824 11.7366 5.98225 11.7318C5.34757 11.2286 4.77248 10.6535 4.26923 10.0188C4.26433 10.0126 4.25959 10.0064 4.25501 9.99999H1.50049C1.22435 9.99999 1.00049 9.77613 1.00049 9.49999C1.00049 7.01471 3.01521 4.99999 5.50049 4.99999C5.74181 4.99999 5.97897 5.01903 6.21049 5.05576ZM10.0005 4.49999C9.17206 4.49999 8.50049 5.17157 8.50049 5.99999C8.50049 6.82842 9.17206 7.49999 10.0005 7.49999C10.8289 7.49999 11.5005 6.82842 11.5005 5.99999C11.5005 5.17157 10.8289 4.49999 10.0005 4.49999Z" fill="white"/>
    <path d="M3.5074 11.4945C3.72874 11.3294 3.77431 11.0161 3.6092 10.7948C3.44408 10.5735 3.1308 10.5279 2.90946 10.693C2.05521 11.3303 1.50049 12.3504 1.50049 13.4999C1.50049 13.6836 1.51468 13.8644 1.54213 14.041C1.57555 14.2561 1.74432 14.4249 1.95944 14.4583C2.13606 14.4857 2.31679 14.4999 2.50049 14.4999C3.65005 14.4999 4.67017 13.9452 5.30742 13.091C5.47254 12.8696 5.42696 12.5563 5.20562 12.3912C4.98428 12.2261 4.671 12.2717 4.50588 12.493C4.04924 13.1052 3.32103 13.4999 2.50049 13.4999C2.50049 12.6794 2.89528 11.9512 3.5074 11.4945Z" fill="white"/>
</svg>
