<svg width="16" height="16" viewBox="0 0 16 16" fill="none" xmlns="http://www.w3.org/2000/svg">
    <path fill-rule="evenodd" clip-rule="evenodd" d="M1.00049 4.74999C1.00049 4.05964 1.56013 3.49999 2.25049 3.49999H6.25049C6.94084 3.49999 7.50049 4.05964 7.50049 4.74999V7.24999C7.50049 7.94035 6.94084 8.49999 6.25049 8.49999H2.25049C1.56013 8.49999 1.00049 7.94035 1.00049 7.24999V4.74999ZM9.00049 5.74999C9.00049 5.05964 9.56013 4.49999 10.2505 4.49999H13.7505C14.4408 4.49999 15.0005 5.05964 15.0005 5.74999V11.25C15.0005 11.9403 14.4408 12.5 13.7505 12.5H10.2505C9.56013 12.5 9.00049 11.9403 9.00049 11.25V5.74999ZM2.00049 10.75C2.00049 10.0596 2.56013 9.49999 3.25049 9.49999H6.75049C7.44084 9.49999 8.00049 10.0596 8.00049 10.75V12.25C8.00049 12.9403 7.44084 13.5 6.75049 13.5H3.25049C2.56013 13.5 2.00049 12.9403 2.00049 12.25V10.75Z" fill="white"/>
</svg>
