<svg width="16" height="16" viewBox="0 0 16 16" fill="none" xmlns="http://www.w3.org/2000/svg">
    <path fill-rule="evenodd" clip-rule="evenodd" d="M8.00049 1.50002C4.41064 1.50002 1.50049 4.41017 1.50049 8.00002C1.50049 11.5899 4.41064 14.5 8.00049 14.5C11.5903 14.5 14.5005 11.5899 14.5005 8.00002C14.5005 4.41017 11.5903 1.50002 8.00049 1.50002ZM8.50049 4.00002C8.50049 3.72388 8.27663 3.50002 8.00049 3.50002C7.72435 3.50002 7.50049 3.72388 7.50049 4.00002V8.00002C7.50049 8.27617 7.72435 8.50002 8.00049 8.50002H11.0005C11.2766 8.50002 11.5005 8.27617 11.5005 8.00002C11.5005 7.72388 11.2766 7.50002 11.0005 7.50002H8.50049V4.00002Z" fill="white"/>
</svg>
