<?xml version="1.0" encoding="utf-8"?><svg viewBox="0 0 24 25" xmlns="http://www.w3.org/2000/svg" xmlns:xlink="http://www.w3.org/1999/xlink"><style>:root>svg{display:none}:root>svg:target{display:block}</style><svg fill="none" viewBox="0 0 20 20" id="chat" xmlns="http://www.w3.org/2000/svg"><path d="M5.8 12.2V6H2C.9 6 0 6.9 0 8v6c0 1.1.9 2 2 2h1v3l3-3h5c1.1 0 2-.9 2-2v-1.82a.947.947 0 0 1-.2.021h-7V12.2ZM18 1H9c-1.1 0-2 .9-2 2v8h7l3 3v-3h1c1.1 0 2-.899 2-2V3c0-1.1-.9-2-2-2Z" fill="#fff"/></svg><svg fill="none" viewBox="0 0 24 25" id="left" xmlns="http://www.w3.org/2000/svg"><path d="m15 18.018-6-6 6-6" stroke="#3D3F4B" stroke-width="2" stroke-linecap="round" stroke-linejoin="round"/></svg><svg fill="none" viewBox="0 0 14 14" id="phone" xmlns="http://www.w3.org/2000/svg"><path fill-rule="evenodd" clip-rule="evenodd" d="M0 2a2 2 0 0 1 2-2h.915c.573 0 1.073.39 1.213.947l.737 2.949a1.25 1.25 0 0 1-.463 1.303l-.862.647c-.09.067-.11.165-.084.234a7.524 7.524 0 0 0 4.465 4.465c.068.025.167.005.234-.084l.647-.863a1.25 1.25 0 0 1 1.303-.462l2.949.737c.556.139.947.639.947 1.213V12a2 2 0 0 1-2 2h-1.5C4.7 14 0 9.299 0 3.5V2Z" fill="#fff"/></svg><svg fill="none" viewBox="0 0 16 16" id="rocket" xmlns="http://www.w3.org/2000/svg"><path fill-rule="evenodd" clip-rule="evenodd" d="M6.21 5.056A10.483 10.483 0 0 1 14.5 1a.5.5 0 0 1 .5.5c0 3.37-1.588 6.37-4.055 8.29A4.5 4.5 0 0 1 6.5 15a.5.5 0 0 1-.5-.5v-2.754A10.557 10.557 0 0 1 4.255 10H1.499a.5.5 0 0 1-.5-.5 4.5 4.5 0 0 1 5.21-4.444ZM10 4.5a1.5 1.5 0 1 0 0 3 1.5 1.5 0 0 0 0-3Z" fill="#fff"/><path d="M3.507 11.495a.5.5 0 1 0-.598-.802 3.496 3.496 0 0 0-1.367 3.348.5.5 0 0 0 .417.417 3.496 3.496 0 0 0 3.348-1.367.5.5 0 0 0-.801-.598A2.495 2.495 0 0 1 2.5 13.5c0-.82.395-1.549 1.007-2.005Z" fill="#fff"/></svg><svg fill="none" viewBox="0 0 16 16" id="star" xmlns="http://www.w3.org/2000/svg"><path fill-rule="evenodd" clip-rule="evenodd" d="M7.193 2.14c.298-.718 1.316-.718 1.615 0l1.388 3.338 3.603.288c.776.063 1.09 1.03.5 1.537l-2.745 2.351.838 3.516c.18.757-.643 1.355-1.307.95L8 12.236 4.916 14.12c-.664.405-1.488-.193-1.307-.95l.838-3.516-2.744-2.35c-.592-.507-.277-1.475.499-1.538l3.603-.288L7.193 2.14Z" fill="#fff"/></svg><svg fill="none" viewBox="0 0 16 16" id="structure" xmlns="http://www.w3.org/2000/svg"><path fill-rule="evenodd" clip-rule="evenodd" d="M1 4.75c0-.69.56-1.25 1.25-1.25h4c.69 0 1.25.56 1.25 1.25v2.5c0 .69-.56 1.25-1.25 1.25h-4C1.56 8.5 1 7.94 1 7.25v-2.5Zm8 1c0-.69.56-1.25 1.25-1.25h3.5c.69 0 1.25.56 1.25 1.25v5.5c0 .69-.56 1.25-1.25 1.25h-3.5c-.69 0-1.25-.56-1.25-1.25v-5.5Zm-7 5c0-.69.56-1.25 1.25-1.25h3.5c.69 0 1.25.56 1.25 1.25v1.5c0 .69-.56 1.25-1.25 1.25h-3.5c-.69 0-1.25-.56-1.25-1.25v-1.5Z" fill="#fff"/></svg><svg fill="none" viewBox="0 0 16 16" id="time" xmlns="http://www.w3.org/2000/svg"><path fill-rule="evenodd" clip-rule="evenodd" d="M8 1.5a6.5 6.5 0 1 0 0 13 6.5 6.5 0 0 0 0-13ZM8.5 4a.5.5 0 0 0-1 0v4a.5.5 0 0 0 .5.5h3a.5.5 0 0 0 0-1H8.5V4Z" fill="#fff"/></svg></svg>