<?xml version="1.0" encoding="utf-8"?><svg viewBox="0 0 24 25" xmlns="http://www.w3.org/2000/svg" xmlns:xlink="http://www.w3.org/1999/xlink"><style>:root>svg{display:none}:root>svg:target{display:block}</style><svg fill="none" viewBox="0 0 24 24" id="book" xmlns="http://www.w3.org/2000/svg"><path d="M11.25 4.533A9.707 9.707 0 0 0 6 3a9.735 9.735 0 0 0-3.25.555.75.75 0 0 0-.5.707v14.25a.75.75 0 0 0 1 .707A8.237 8.237 0 0 1 6 18.75c1.995 0 3.823.707 5.25 1.886V4.533ZM12.75 20.636A8.214 8.214 0 0 1 18 18.75c.966 0 1.89.166 2.75.47a.75.75 0 0 0 1-.708V4.262a.75.75 0 0 0-.5-.707A9.735 9.735 0 0 0 18 3a9.707 9.707 0 0 0-5.25 1.533v16.103Z" fill="#4C6EF6"/></svg><svg fill="none" viewBox="0 0 24 24" id="case" xmlns="http://www.w3.org/2000/svg"><path fill-rule="evenodd" clip-rule="evenodd" d="M7.5 5.25a3 3 0 0 1 3-3h3a3 3 0 0 1 3 3v.205c.933.085 1.857.197 2.774.334 1.454.218 2.476 1.483 2.476 2.917v3.033c0 1.211-.734 2.352-1.936 2.752A24.726 24.726 0 0 1 12 15.75c-2.73 0-5.357-.442-7.814-1.259-1.202-.4-1.936-1.541-1.936-2.752V8.706c0-1.434 1.022-2.7 2.476-2.917A48.814 48.814 0 0 1 7.5 5.455V5.25Zm7.5 0v.09a49.488 49.488 0 0 0-6 0v-.09a1.5 1.5 0 0 1 1.5-1.5h3a1.5 1.5 0 0 1 1.5 1.5Zm-3 8.25a.75.75 0 1 0 0-1.5.75.75 0 0 0 0 1.5Z" fill="#4C6EF6"/><path d="M3 18.4v-2.796a4.3 4.3 0 0 0 .713.31A26.226 26.226 0 0 0 12 17.25c2.892 0 5.68-.468 8.287-1.335.252-.084.49-.189.713-.311V18.4c0 1.452-1.047 2.728-2.523 2.923-2.12.282-4.282.427-6.477.427a49.19 49.19 0 0 1-6.477-.427C4.047 21.128 3 19.852 3 18.4Z" fill="#4C6EF6"/></svg><svg fill="none" viewBox="0 0 20 20" id="chat" xmlns="http://www.w3.org/2000/svg"><path d="M5.8 12.2V6H2C.9 6 0 6.9 0 8v6c0 1.1.9 2 2 2h1v3l3-3h5c1.1 0 2-.9 2-2v-1.82a.947.947 0 0 1-.2.021h-7V12.2ZM18 1H9c-1.1 0-2 .9-2 2v8h7l3 3v-3h1c1.1 0 2-.899 2-2V3c0-1.1-.9-2-2-2Z" fill="#fff"/></svg><svg fill="none" viewBox="0 0 24 25" id="dir" xmlns="http://www.w3.org/2000/svg"><path d="M19.905 9.75c.383 0 .75.057 1.095.162V9.75a3 3 0 0 0-3-3H14.12a.75.75 0 0 1-.53-.22L11.47 4.41a2.25 2.25 0 0 0-1.591-.659h-3.88a3 3 0 0 0-3 3v3.162a3.756 3.756 0 0 1 1.095-.162h15.811ZM4.094 11.25a2.25 2.25 0 0 0-2.227 2.568l.857 6A2.25 2.25 0 0 0 4.95 21.75H19.05a2.25 2.25 0 0 0 2.227-1.932l.857-6a2.25 2.25 0 0 0-2.227-2.568H4.094Z" fill="#4C6EF6"/></svg><svg fill="none" viewBox="0 0 24 24" id="file" xmlns="http://www.w3.org/2000/svg"><path fill-rule="evenodd" clip-rule="evenodd" d="M5.625 1.5c-1.036 0-1.875.84-1.875 1.875v17.25c0 1.035.84 1.875 1.875 1.875h12.75c1.035 0 1.875-.84 1.875-1.875V12.75A3.75 3.75 0 0 0 16.5 9h-1.875a1.875 1.875 0 0 1-1.875-1.875V5.25A3.75 3.75 0 0 0 9 1.5H5.625ZM7.5 15a.75.75 0 0 1 .75-.75h7.5a.75.75 0 0 1 0 1.5h-7.5A.75.75 0 0 1 7.5 15Zm.75 2.25a.75.75 0 0 0 0 1.5H12a.75.75 0 0 0 0-1.5H8.25Z" fill="#4C6EF6"/><path d="M12.971 1.816A5.23 5.23 0 0 1 14.25 5.25v1.875c0 .207.168.375.375.375H16.5a5.23 5.23 0 0 1 3.434 1.279 9.768 9.768 0 0 0-6.963-6.963Z" fill="#4C6EF6"/></svg><svg fill="none" viewBox="0 0 24 25" id="hat" xmlns="http://www.w3.org/2000/svg"><path d="M11.7 3.305a.75.75 0 0 1 .6 0A60.65 60.65 0 0 1 22.83 9.22a.75.75 0 0 1-.231 1.337 49.949 49.949 0 0 0-9.902 3.912l-.003.002-.34.18a.75.75 0 0 1-.707 0A50.009 50.009 0 0 0 7.5 12.673v-.224c0-.131.067-.248.172-.311a54.62 54.62 0 0 1 4.653-2.52.75.75 0 0 0-.65-1.352 56.104 56.104 0 0 0-4.78 2.589 1.857 1.857 0 0 0-.859 1.228 49.803 49.803 0 0 0-4.634-1.527.75.75 0 0 1-.231-1.337A60.653 60.653 0 0 1 11.7 3.305Z" fill="#4C6EF6"/><path d="M13.06 15.973a48.442 48.442 0 0 1 7.666-3.282c.134 1.414.22 2.843.255 4.284a.75.75 0 0 1-.46.711 47.885 47.885 0 0 0-8.105 4.342.75.75 0 0 1-.832 0 47.884 47.884 0 0 0-8.104-4.342.75.75 0 0 1-.461-.71c.035-1.442.121-2.87.255-4.286A48.4 48.4 0 0 1 6 13.68v1.27a1.5 1.5 0 0 0-.14 2.508c-.09.38-.222.753-.397 1.11.452.213.901.434 1.346.661a6.729 6.729 0 0 0 .551-1.608 1.5 1.5 0 0 0 .14-2.67v-.645a48.55 48.55 0 0 1 3.44 1.668 2.25 2.25 0 0 0 2.12 0Z" fill="#4C6EF6"/><path d="M4.462 19.962c.42-.419.753-.89 1-1.395.453.214.902.435 1.347.662a6.743 6.743 0 0 1-1.286 1.794.75.75 0 1 1-1.06-1.06Z" fill="#4C6EF6"/></svg><svg fill="none" viewBox="0 0 24 25" id="left" xmlns="http://www.w3.org/2000/svg"><path d="m15 18.018-6-6 6-6" stroke="#3D3F4B" stroke-width="2" stroke-linecap="round" stroke-linejoin="round"/></svg><svg fill="none" viewBox="0 0 24 24" id="pan" xmlns="http://www.w3.org/2000/svg"><path d="M21.731 2.27a2.625 2.625 0 0 0-3.712 0l-1.157 1.156 3.712 3.713 1.157-1.158a2.625 2.625 0 0 0 0-3.712ZM19.513 8.2l-3.712-3.713-8.4 8.4a5.25 5.25 0 0 0-1.32 2.214l-.8 2.685a.75.75 0 0 0 .933.933l2.685-.8a5.25 5.25 0 0 0 2.214-1.319l8.4-8.4Z" fill="#4C6EF6"/><path d="M5.25 5.25a3 3 0 0 0-3 3v10.5a3 3 0 0 0 3 3h10.5a3 3 0 0 0 3-3V13.5a.75.75 0 0 0-1.5 0v5.25a1.5 1.5 0 0 1-1.5 1.5H5.25a1.5 1.5 0 0 1-1.5-1.5V8.25a1.5 1.5 0 0 1 1.5-1.5h5.25a.75.75 0 0 0 0-1.5H5.25Z" fill="#4C6EF6"/></svg><svg fill="none" viewBox="0 0 14 14" id="phone" xmlns="http://www.w3.org/2000/svg"><path fill-rule="evenodd" clip-rule="evenodd" d="M0 2a2 2 0 0 1 2-2h.915c.573 0 1.073.39 1.213.947l.737 2.949a1.25 1.25 0 0 1-.463 1.303l-.862.647c-.09.067-.11.165-.084.234a7.524 7.524 0 0 0 4.465 4.465c.068.025.167.005.234-.084l.647-.863a1.25 1.25 0 0 1 1.303-.462l2.949.737c.556.139.947.639.947 1.213V12a2 2 0 0 1-2 2h-1.5C4.7 14 0 9.299 0 3.5V2Z" fill="#fff"/></svg><svg fill="none" viewBox="0 0 16 16" id="rocket" xmlns="http://www.w3.org/2000/svg"><path fill-rule="evenodd" clip-rule="evenodd" d="M6.21 5.056A10.483 10.483 0 0 1 14.5 1a.5.5 0 0 1 .5.5c0 3.37-1.588 6.37-4.055 8.29A4.5 4.5 0 0 1 6.5 15a.5.5 0 0 1-.5-.5v-2.754A10.557 10.557 0 0 1 4.255 10H1.499a.5.5 0 0 1-.5-.5 4.5 4.5 0 0 1 5.21-4.444ZM10 4.5a1.5 1.5 0 1 0 0 3 1.5 1.5 0 0 0 0-3Z" fill="#fff"/><path d="M3.507 11.495a.5.5 0 1 0-.598-.802 3.496 3.496 0 0 0-1.367 3.348.5.5 0 0 0 .417.417 3.496 3.496 0 0 0 3.348-1.367.5.5 0 0 0-.801-.598A2.495 2.495 0 0 1 2.5 13.5c0-.82.395-1.549 1.007-2.005Z" fill="#fff"/></svg><svg fill="none" viewBox="0 0 16 16" id="star" xmlns="http://www.w3.org/2000/svg"><path fill-rule="evenodd" clip-rule="evenodd" d="M7.193 2.14c.298-.718 1.316-.718 1.615 0l1.388 3.338 3.603.288c.776.063 1.09 1.03.5 1.537l-2.745 2.351.838 3.516c.18.757-.643 1.355-1.307.95L8 12.236 4.916 14.12c-.664.405-1.488-.193-1.307-.95l.838-3.516-2.744-2.35c-.592-.507-.277-1.475.499-1.538l3.603-.288L7.193 2.14Z" fill="#fff"/></svg><svg fill="none" viewBox="0 0 16 16" id="structure" xmlns="http://www.w3.org/2000/svg"><path fill-rule="evenodd" clip-rule="evenodd" d="M1 4.75c0-.69.56-1.25 1.25-1.25h4c.69 0 1.25.56 1.25 1.25v2.5c0 .69-.56 1.25-1.25 1.25h-4C1.56 8.5 1 7.94 1 7.25v-2.5Zm8 1c0-.69.56-1.25 1.25-1.25h3.5c.69 0 1.25.56 1.25 1.25v5.5c0 .69-.56 1.25-1.25 1.25h-3.5c-.69 0-1.25-.56-1.25-1.25v-5.5Zm-7 5c0-.69.56-1.25 1.25-1.25h3.5c.69 0 1.25.56 1.25 1.25v1.5c0 .69-.56 1.25-1.25 1.25h-3.5c-.69 0-1.25-.56-1.25-1.25v-1.5Z" fill="#fff"/></svg><svg fill="none" viewBox="0 0 16 16" id="time" xmlns="http://www.w3.org/2000/svg"><path fill-rule="evenodd" clip-rule="evenodd" d="M8 1.5a6.5 6.5 0 1 0 0 13 6.5 6.5 0 0 0 0-13ZM8.5 4a.5.5 0 0 0-1 0v4a.5.5 0 0 0 .5.5h3a.5.5 0 0 0 0-1H8.5V4Z" fill="#fff"/></svg></svg>